<svg xmlns="http://www.w3.org/2000/svg" width="30.11" height="27.279" viewBox="0 0 30.11 27.279"><defs><style>.a{fill:#ac265b;stroke:#ac265b;stroke-width:0.094px;}</style></defs><path class="a" d="M3.489,26.862C7.316,19.968,11.181,13.034,15.008,6.1l.338.08c1.388,2.351,2.664,4.782,4.015,7.133.3.478.713,1.116.338,1.674-1.313,2.511-2.739,5.021-4.052,7.572,3,0,6-.04,9,0,1.763,3.467,3.527,6.934,5.365,10.361v.319c-3.039,0-6.078,0-9.117.04-1.951-3.387-3.6-6.974-5.553-10.361-2.1,3.347-3.752,6.974-5.816,10.361-3.152-.04-6.341.04-9.53-.239v-.08C1.276,31.007,2.289,28.895,3.489,26.862Z" transform="translate(0.047 -6.046)"/></svg>