<svg xmlns="http://www.w3.org/2000/svg" width="16" height="16" viewBox="0 0 16 16"><defs><style>.a{fill:#98a2b0;}</style></defs><path class="a" d="M15.645,13.907l-3.3-3.3a6.585,6.585,0,0,0,1.192-3.837A6.649,6.649,0,0,0,13,4.143,6.629,6.629,0,0,0,9.4.537a6.746,6.746,0,0,0-5.26,0A6.629,6.629,0,0,0,.534,4.143a6.746,6.746,0,0,0,0,5.26A6.631,6.631,0,0,0,4.14,13.008a6.652,6.652,0,0,0,2.63.534,6.586,6.586,0,0,0,3.837-1.192l3.3,3.288A1.142,1.142,0,0,0,14.77,16a1.231,1.231,0,0,0,.875-2.1ZM9.813,9.815A4.148,4.148,0,0,1,6.769,11.08,4.149,4.149,0,0,1,3.726,9.815,4.148,4.148,0,0,1,2.462,6.772,4.149,4.149,0,0,1,3.726,3.729,4.148,4.148,0,0,1,6.769,2.465,4.149,4.149,0,0,1,9.813,3.729a4.148,4.148,0,0,1,1.265,3.043A4.148,4.148,0,0,1,9.813,9.815Z" transform="translate(0 -0.003)"/></svg>